<mxfile host="app.diagrams.net" modified="2024-06-05T08:46:06.346Z" agent="Mozilla/5.0 (Windows NT 10.0; Win64; x64) AppleWebKit/537.36 (KHTML, like Gecko) Chrome/125.0.0.0 Safari/537.36 Edg/125.0.0.0" etag="vh8UWJr0i1xm-2-Fk7kn" version="24.4.13" type="device">
  <diagram id="R2lEEEUBdFMjLlhIrx00" name="Page-1">
    <mxGraphModel dx="1413" dy="1838" grid="1" gridSize="10" guides="1" tooltips="1" connect="1" arrows="1" fold="1" page="1" pageScale="1" pageWidth="850" pageHeight="1100" math="0" shadow="0" extFonts="Permanent Marker^https://fonts.googleapis.com/css?family=Permanent+Marker">
      <root>
        <mxCell id="0" />
        <mxCell id="1" parent="0" />
        <mxCell id="sofwIn6yJqRatld69bSQ-1" value="users" style="swimlane;childLayout=stackLayout;horizontal=1;startSize=50;horizontalStack=0;rounded=1;fontSize=14;fontStyle=0;strokeWidth=2;resizeParent=0;resizeLast=1;shadow=0;dashed=0;align=center;arcSize=4;whiteSpace=wrap;html=1;" parent="1" vertex="1">
          <mxGeometry x="120" y="40" width="160" height="200" as="geometry" />
        </mxCell>
        <mxCell id="sofwIn6yJqRatld69bSQ-2" value="id: Int&lt;br&gt;first_name: nvarchar(50)&lt;br&gt;last_name: nvarchar(50)&lt;br&gt;email: nvarchar(100)&lt;br&gt;password: navarchar(100)&lt;div&gt;&lt;br&gt;&lt;/div&gt;&lt;div&gt;PK(id)&lt;/div&gt;" style="align=left;strokeColor=none;fillColor=none;spacingLeft=4;fontSize=12;verticalAlign=top;resizable=0;rotatable=0;part=1;html=1;" parent="sofwIn6yJqRatld69bSQ-1" vertex="1">
          <mxGeometry y="50" width="160" height="150" as="geometry" />
        </mxCell>
        <mxCell id="sofwIn6yJqRatld69bSQ-3" value="user_to_user_friend" style="swimlane;childLayout=stackLayout;horizontal=1;startSize=50;horizontalStack=0;rounded=1;fontSize=14;fontStyle=0;strokeWidth=2;resizeParent=0;resizeLast=1;shadow=0;dashed=0;align=center;arcSize=4;whiteSpace=wrap;html=1;" parent="1" vertex="1">
          <mxGeometry x="120" y="-280" width="160" height="200" as="geometry" />
        </mxCell>
        <mxCell id="sofwIn6yJqRatld69bSQ-4" value="user_one_id: int&lt;br&gt;user_two_id: int&lt;br&gt;accepted_user_one: tiny int&lt;br&gt;accepted_user_two tiny int&lt;div&gt;&lt;br&gt;&lt;/div&gt;&lt;div&gt;PK(user_one_id,&amp;nbsp;&lt;/div&gt;&lt;div&gt;user_two_id)&lt;/div&gt;" style="align=left;strokeColor=none;fillColor=none;spacingLeft=4;fontSize=12;verticalAlign=top;resizable=0;rotatable=0;part=1;html=1;" parent="sofwIn6yJqRatld69bSQ-3" vertex="1">
          <mxGeometry y="50" width="160" height="150" as="geometry" />
        </mxCell>
        <mxCell id="sofwIn6yJqRatld69bSQ-11" value="groups" style="swimlane;childLayout=stackLayout;horizontal=1;startSize=50;horizontalStack=0;rounded=1;fontSize=14;fontStyle=0;strokeWidth=2;resizeParent=0;resizeLast=1;shadow=0;dashed=0;align=center;arcSize=4;whiteSpace=wrap;html=1;" parent="1" vertex="1">
          <mxGeometry x="760" y="40" width="160" height="200" as="geometry" />
        </mxCell>
        <mxCell id="sofwIn6yJqRatld69bSQ-12" value="id: Int&lt;br&gt;name: navarchar(100)&lt;br&gt;creation_date: Date&lt;div&gt;&lt;br&gt;&lt;/div&gt;&lt;div&gt;PK(id)&lt;/div&gt;" style="align=left;strokeColor=none;fillColor=none;spacingLeft=4;fontSize=12;verticalAlign=top;resizable=0;rotatable=0;part=1;html=1;" parent="sofwIn6yJqRatld69bSQ-11" vertex="1">
          <mxGeometry y="50" width="160" height="150" as="geometry" />
        </mxCell>
        <mxCell id="sofwIn6yJqRatld69bSQ-13" value="user_to_groups" style="swimlane;childLayout=stackLayout;horizontal=1;startSize=50;horizontalStack=0;rounded=1;fontSize=14;fontStyle=0;strokeWidth=2;resizeParent=0;resizeLast=1;shadow=0;dashed=0;align=center;arcSize=4;whiteSpace=wrap;html=1;" parent="1" vertex="1">
          <mxGeometry x="440" y="40" width="160" height="200" as="geometry" />
        </mxCell>
        <mxCell id="sofwIn6yJqRatld69bSQ-14" value="userId: int&lt;br&gt;group: int&lt;div&gt;accepted_invite: tiny int&lt;br&gt;&lt;div&gt;&lt;br&gt;&lt;/div&gt;&lt;div&gt;PK(UserId, GroupId)&lt;/div&gt;&lt;/div&gt;" style="align=left;strokeColor=none;fillColor=none;spacingLeft=4;fontSize=12;verticalAlign=top;resizable=0;rotatable=0;part=1;html=1;" parent="sofwIn6yJqRatld69bSQ-13" vertex="1">
          <mxGeometry y="50" width="160" height="150" as="geometry" />
        </mxCell>
        <mxCell id="sofwIn6yJqRatld69bSQ-17" value="user_messages" style="swimlane;childLayout=stackLayout;horizontal=1;startSize=50;horizontalStack=0;rounded=1;fontSize=14;fontStyle=0;strokeWidth=2;resizeParent=0;resizeLast=1;shadow=0;dashed=0;align=center;arcSize=4;whiteSpace=wrap;html=1;" parent="1" vertex="1">
          <mxGeometry x="120" y="400" width="160" height="200" as="geometry" />
        </mxCell>
        <mxCell id="sofwIn6yJqRatld69bSQ-18" value="sender_id: int // Is user&lt;div&gt;receiver_id: int // Is user&lt;div&gt;message: nvarchar(max)&lt;br&gt;&lt;div&gt;send_date: Date&lt;/div&gt;&lt;/div&gt;&lt;div&gt;&lt;br&gt;&lt;/div&gt;&lt;div&gt;PK(sender_id, receiver_id,&amp;nbsp;&lt;/div&gt;&lt;div&gt;send_date)&lt;/div&gt;&lt;/div&gt;" style="align=left;strokeColor=none;fillColor=none;spacingLeft=4;fontSize=12;verticalAlign=top;resizable=0;rotatable=0;part=1;html=1;" parent="sofwIn6yJqRatld69bSQ-17" vertex="1">
          <mxGeometry y="50" width="160" height="150" as="geometry" />
        </mxCell>
        <mxCell id="tpOv7Ix0XxtNo-KRYr6S-4" value="group_messages" style="swimlane;childLayout=stackLayout;horizontal=1;startSize=50;horizontalStack=0;rounded=1;fontSize=14;fontStyle=0;strokeWidth=2;resizeParent=0;resizeLast=1;shadow=0;dashed=0;align=center;arcSize=4;whiteSpace=wrap;html=1;" parent="1" vertex="1">
          <mxGeometry x="760" y="400" width="160" height="200" as="geometry" />
        </mxCell>
        <mxCell id="tpOv7Ix0XxtNo-KRYr6S-5" value="sender_id: int // is user&lt;br&gt;receiver_id: int // is group&lt;div&gt;message: nvarchar(max)&lt;br&gt;&lt;div&gt;send_date: Date&lt;/div&gt;&lt;/div&gt;&lt;div&gt;&lt;br&gt;&lt;/div&gt;&lt;div&gt;PK(sender_id, receiver_id,&amp;nbsp;&lt;/div&gt;&lt;div&gt;send_date)&lt;/div&gt;" style="align=left;strokeColor=none;fillColor=none;spacingLeft=4;fontSize=12;verticalAlign=top;resizable=0;rotatable=0;part=1;html=1;" parent="tpOv7Ix0XxtNo-KRYr6S-4" vertex="1">
          <mxGeometry y="50" width="160" height="150" as="geometry" />
        </mxCell>
        <mxCell id="8m4TLNKd0csLDq7sgP0S-2" value="Is user one" style="fontSize=12;html=1;endArrow=ERmandOne;startArrow=ERmandOne;rounded=0;entryX=0.25;entryY=1;entryDx=0;entryDy=0;exitX=0.25;exitY=0;exitDx=0;exitDy=0;" parent="1" source="sofwIn6yJqRatld69bSQ-1" target="sofwIn6yJqRatld69bSQ-4" edge="1">
          <mxGeometry width="100" height="100" relative="1" as="geometry">
            <mxPoint x="450" y="50" as="sourcePoint" />
            <mxPoint x="550" y="-50" as="targetPoint" />
          </mxGeometry>
        </mxCell>
        <mxCell id="8m4TLNKd0csLDq7sgP0S-4" value="Is user two" style="fontSize=12;html=1;endArrow=ERmandOne;startArrow=ERmandOne;rounded=0;entryX=0.75;entryY=1;entryDx=0;entryDy=0;exitX=0.75;exitY=0;exitDx=0;exitDy=0;" parent="1" source="sofwIn6yJqRatld69bSQ-1" target="sofwIn6yJqRatld69bSQ-4" edge="1">
          <mxGeometry width="100" height="100" relative="1" as="geometry">
            <mxPoint x="450" y="50" as="sourcePoint" />
            <mxPoint x="550" y="-50" as="targetPoint" />
          </mxGeometry>
        </mxCell>
        <mxCell id="8m4TLNKd0csLDq7sgP0S-6" value="Is in group" style="fontSize=12;html=1;endArrow=ERoneToMany;rounded=0;exitX=1;exitY=0.25;exitDx=0;exitDy=0;entryX=0;entryY=0.25;entryDx=0;entryDy=0;" parent="1" source="sofwIn6yJqRatld69bSQ-2" target="sofwIn6yJqRatld69bSQ-14" edge="1">
          <mxGeometry width="100" height="100" relative="1" as="geometry">
            <mxPoint x="450" y="350" as="sourcePoint" />
            <mxPoint x="550" y="250" as="targetPoint" />
          </mxGeometry>
        </mxCell>
        <mxCell id="8m4TLNKd0csLDq7sgP0S-7" value="Is group" style="fontSize=12;html=1;endArrow=ERoneToMany;rounded=0;entryX=1;entryY=0.25;entryDx=0;entryDy=0;exitX=0;exitY=0.25;exitDx=0;exitDy=0;" parent="1" source="sofwIn6yJqRatld69bSQ-12" target="sofwIn6yJqRatld69bSQ-14" edge="1">
          <mxGeometry width="100" height="100" relative="1" as="geometry">
            <mxPoint x="450" y="350" as="sourcePoint" />
            <mxPoint x="550" y="250" as="targetPoint" />
          </mxGeometry>
        </mxCell>
        <mxCell id="8m4TLNKd0csLDq7sgP0S-8" value="Is sender" style="fontSize=12;html=1;endArrow=ERoneToMany;rounded=0;exitX=0.25;exitY=1;exitDx=0;exitDy=0;entryX=0.25;entryY=0;entryDx=0;entryDy=0;" parent="1" source="sofwIn6yJqRatld69bSQ-2" target="sofwIn6yJqRatld69bSQ-17" edge="1">
          <mxGeometry width="100" height="100" relative="1" as="geometry">
            <mxPoint x="450" y="350" as="sourcePoint" />
            <mxPoint x="550" y="250" as="targetPoint" />
          </mxGeometry>
        </mxCell>
        <mxCell id="8m4TLNKd0csLDq7sgP0S-9" value="Is&amp;nbsp;receiver" style="fontSize=12;html=1;endArrow=ERoneToMany;rounded=0;exitX=0.75;exitY=1;exitDx=0;exitDy=0;entryX=0.75;entryY=0;entryDx=0;entryDy=0;" parent="1" source="sofwIn6yJqRatld69bSQ-2" target="sofwIn6yJqRatld69bSQ-17" edge="1">
          <mxGeometry width="100" height="100" relative="1" as="geometry">
            <mxPoint x="450" y="350" as="sourcePoint" />
            <mxPoint x="550" y="250" as="targetPoint" />
          </mxGeometry>
        </mxCell>
        <mxCell id="8m4TLNKd0csLDq7sgP0S-11" value="Is receiver" style="fontSize=12;html=1;endArrow=ERoneToMany;rounded=0;entryX=0.75;entryY=0;entryDx=0;entryDy=0;exitX=0.75;exitY=1;exitDx=0;exitDy=0;" parent="1" source="sofwIn6yJqRatld69bSQ-12" target="tpOv7Ix0XxtNo-KRYr6S-4" edge="1">
          <mxGeometry width="100" height="100" relative="1" as="geometry">
            <mxPoint x="450" y="350" as="sourcePoint" />
            <mxPoint x="550" y="250" as="targetPoint" />
          </mxGeometry>
        </mxCell>
        <mxCell id="8m4TLNKd0csLDq7sgP0S-12" value="Is sender" style="fontSize=12;html=1;endArrow=ERoneToMany;rounded=0;entryX=0;entryY=0.25;entryDx=0;entryDy=0;exitX=1;exitY=0.75;exitDx=0;exitDy=0;" parent="1" source="sofwIn6yJqRatld69bSQ-2" target="tpOv7Ix0XxtNo-KRYr6S-4" edge="1">
          <mxGeometry width="100" height="100" relative="1" as="geometry">
            <mxPoint x="450" y="350" as="sourcePoint" />
            <mxPoint x="550" y="250" as="targetPoint" />
          </mxGeometry>
        </mxCell>
      </root>
    </mxGraphModel>
  </diagram>
</mxfile>
